<?xml version="1.0" encoding="utf-8"?>
<!-- Generator: Adobe Illustrator 15.0.0, SVG Export Plug-In . SVG Version: 6.00 Build 0)  -->
<!DOCTYPE svg PUBLIC "-//W3C//DTD SVG 1.1//EN" "http://www.w3.org/Graphics/SVG/1.1/DTD/svg11.dtd">
<svg version="1.1" id="Layer_1" xmlns="http://www.w3.org/2000/svg" xmlns:xlink="http://www.w3.org/1999/xlink" x="0px" y="0px"
	 width="600px" height="230px" viewBox="0 0 600 230" enable-background="new 0 0 600 230" xml:space="preserve">
<g>
	<path d="M146.675,58.975c-8.119-3.9-17.191-6.094-26.8-6.094c-34.135,0-61.823,27.676-61.823,61.806
		c0,34.138,27.688,61.812,61.823,61.812c9.609,0,18.682-2.187,26.8-6.108c1.147,3.556,4.495,6.108,8.408,6.108h26.586V52.879
		h-26.586C151.17,52.879,147.822,55.42,146.675,58.975z M119.875,141.148c-14.612,0-26.442-11.864-26.442-26.462
		c0-14.608,11.831-26.449,26.442-26.449c13.83,0,25.194,10.631,26.337,24.169v4.547
		C145.069,130.521,133.704,141.148,119.875,141.148z"/>
	<path d="M273.884,52.879c-9.589,0-18.674,2.195-26.765,6.094c-1.175-3.554-4.469-6.094-8.425-6.094h-26.563v7.586v1.283v114.75
		v44.609V230h35.439v-59.39c7.991,3.779,16.923,5.887,26.314,5.887c34.19,0,61.829-27.673,61.829-61.812
		C335.713,80.555,308.074,52.879,273.884,52.879z M273.884,141.148c-13.815,0-25.153-10.626-26.314-24.195v-4.547
		c1.161-13.538,12.5-24.169,26.314-24.169c14.635,0,26.508,11.841,26.508,26.449C300.392,129.284,288.52,141.148,273.884,141.148z"
		/>
	<polygon points="426.041,52.879 394.289,98.678 394.289,0 358.795,0 358.795,8.876 358.795,168.268 358.795,177.116 
		394.289,177.116 394.289,130.492 426.647,176.498 470.738,176.498 424.241,114.686 470.738,52.879 	"/>
	<polygon points="0,0 0,8.876 0,168.268 0,177.116 35.472,177.116 35.472,0 	"/>
	<path d="M572.682,52.879c-3.934,0-7.302,2.54-8.381,6.094c-8.133-3.899-17.233-6.094-26.863-6.094
		c-34.088,0-61.771,27.676-61.771,61.806c0,34.138,27.683,61.812,61.771,61.812c9.63,0,18.73-2.187,26.863-6.107
		c1.08,3.555,4.447,6.107,8.381,6.107h26.608V52.879H572.682z M537.438,141.148c-14.544,0-26.409-11.864-26.409-26.462
		c0-14.608,11.865-26.449,26.409-26.449c13.86,0,25.238,10.631,26.354,24.169v4.547
		C562.676,130.521,551.297,141.148,537.438,141.148z"/>
</g>
</svg>
